<svg width="327" height="327" viewBox="0 0 327 327" fill="none" xmlns="http://www.w3.org/2000/svg">
<g clip-path="url(#clip0_119_2)">
<path d="M241.142 241.509C256.65 226.107 267.242 206.451 271.578 185.03C275.915 163.608 273.801 141.383 265.503 121.165C257.206 100.947 243.098 83.6449 224.965 71.4479C206.831 59.2508 185.487 52.7066 163.631 52.643C141.776 52.5793 120.392 58.9992 102.183 71.0904C83.9753 83.1816 69.7614 100.401 61.3399 120.57C52.9184 140.739 50.6676 162.952 54.8722 184.399C59.0769 205.845 69.5482 225.562 84.9613 241.055C105.639 261.768 133.682 273.446 162.952 273.531C192.223 273.616 220.337 262.102 241.142 241.509ZM118.147 245.392C125.068 245.282 131.856 243.47 137.912 240.116C134.701 246.28 132.877 253.071 132.568 260.014C128.91 254.118 123.926 249.157 118.013 245.526L118.147 245.392ZM111.67 242.388C116.412 235.777 133.739 231.068 142.219 234.206C138.169 237.987 133.257 240.721 127.909 242.171C122.562 243.62 116.941 243.741 111.537 242.522L111.67 242.388ZM84.0315 179.557C77.0282 179.657 70.1622 181.518 64.0662 184.968C67.4742 178.813 69.2881 171.903 69.3428 164.869C73.1307 170.76 78.1398 175.77 84.0315 179.557ZM90.3079 182.495C85.5665 188.839 69.3739 194.082 59.9927 190.777C64.734 184.1 80.6929 179.758 90.2077 182.595L90.3079 182.495ZM103.468 109.245C96.0872 109.173 88.8342 111.175 82.5344 115.022C86.2082 108.805 88.21 101.743 88.3452 94.5227C91.9971 100.611 97.1307 105.675 103.268 109.245L103.468 109.245ZM109.611 112.115C105.562 115.862 100.66 118.563 95.3298 119.983C89.9998 121.404 84.4038 121.5 79.0285 120.264C83.6697 113.62 101.031 109.011 109.41 112.115L109.611 112.115ZM94.6557 88.0119C101.44 87.5249 108.074 85.781 114.22 82.8688C114.654 83.3028 114.22 83.6701 114.053 83.9706C111.024 89.4726 109.438 95.6523 109.445 101.933C109.645 102.133 109.511 102.667 109.178 102.934C105.594 96.8085 100.532 91.6783 94.4554 88.0119L94.6557 88.0119ZM120.898 78.4613C122.004 83.9036 121.832 89.5286 120.394 94.8933C118.957 100.258 116.295 105.216 112.616 109.378C109.044 102.066 113.786 83.4364 120.698 78.4613L120.898 78.4613ZM208.403 80.6244C201.495 80.8957 194.742 82.7586 188.671 86.0679C192.026 80.0158 193.892 73.2521 194.115 66.3363C197.749 72.1076 202.632 76.9901 208.403 80.6244ZM215.08 83.5617C211.173 89.0707 195.748 95.3487 184.564 91.9108C188.623 88.1972 193.508 85.5031 198.814 84.0513C204.121 82.5995 209.696 82.4316 215.08 83.5617ZM260.014 132.102C256.595 132.378 253.202 132.914 249.864 133.705C246.569 134.654 243.38 135.941 240.349 137.545C243.596 131.44 245.444 124.688 245.759 117.78C249.394 123.625 254.287 128.586 260.08 132.302L260.014 132.102ZM234.473 141.619C233.27 136.261 233.393 130.69 234.83 125.39C236.268 120.09 238.977 115.22 242.721 111.203C243.95 116.587 243.847 122.189 242.422 127.524C240.996 132.859 238.29 137.766 234.539 141.819L234.473 141.619ZM223.382 216.939C227.155 216.237 230.56 216.037 233.932 215.269C237.305 214.429 240.574 213.219 243.681 211.662C240.374 217.847 238.632 224.748 238.605 231.761C234.747 225.784 229.56 220.78 223.449 217.139L223.382 216.939ZM217.039 213.934C221.03 210.067 225.948 207.289 231.321 205.868C236.694 204.447 242.341 204.43 247.722 205.819C243.548 212.53 224.918 217.473 217.206 214.235L217.039 213.934ZM231.76 238.005C224.845 238.218 218.076 240.048 211.995 243.348C215.264 237.22 217.08 230.424 217.305 223.483C220.99 229.41 225.951 234.44 231.827 238.205L231.76 238.005ZM206.219 247.455C203.582 241.345 205.219 225.954 214.301 216.606C215.594 222.042 215.539 227.712 214.142 233.123C212.745 238.534 210.048 243.523 206.286 247.655L206.219 247.455ZM196.404 247.456C189.451 247.634 182.65 249.526 176.605 252.966C179.933 246.834 181.774 240.007 181.982 233.034C185.657 238.93 190.608 243.927 196.47 247.656L196.404 247.456ZM170.896 256.94C169.578 251.565 169.63 245.946 171.048 240.597C172.466 235.248 175.204 230.34 179.011 226.324C180.271 231.727 180.197 237.357 178.795 242.726C177.393 248.095 174.705 253.042 170.963 257.14L170.896 256.94ZM135.375 231.101C128.416 231.213 121.596 233.074 115.543 236.512C119.008 230.2 120.812 223.112 120.787 215.912C124.403 222.116 129.422 227.387 135.442 231.302L135.375 231.101ZM109.767 240.552C106.196 233.908 110.871 216.08 117.849 209.97C119.084 215.367 119 220.982 117.605 226.34C116.21 231.698 113.544 236.642 109.834 240.752L109.767 240.552ZM92.1745 219.42C99.1425 219.423 105.999 217.665 112.106 214.31C108.78 220.37 106.937 227.132 106.73 234.042C103.012 228.234 98.0662 223.311 92.2413 219.62L92.1745 219.42ZM119.919 209.035C125.214 210.748 130.026 213.692 133.961 217.627C137.895 221.562 140.84 226.374 142.553 231.669C137.245 230.058 132.412 227.171 128.478 223.26C124.544 219.349 121.628 214.534 119.986 209.235L119.919 209.035ZM93.3491 144.468C86.4007 144.641 79.5924 146.461 73.484 149.778C76.8595 143.762 78.7058 137.009 78.8607 130.113C82.5301 135.942 87.4864 140.853 93.3491 144.468ZM99.9593 147.405C95.8767 151.204 90.9124 153.925 85.5148 155.325C80.1172 156.724 74.4562 156.757 69.0432 155.421C73.1728 151.728 78.1189 149.067 83.4758 147.657C88.8325 146.246 94.4472 146.126 99.8592 147.305L99.9593 147.405ZM110.846 113.618C112.088 119.019 112.001 124.642 110.594 130.003C109.186 135.365 106.499 140.305 102.764 144.4C101.554 138.997 101.657 133.383 103.063 128.027C104.469 122.671 107.138 117.73 110.846 113.618ZM85.5385 123.302C92.37 123.024 99.0394 121.136 105.003 117.791C101.739 123.781 99.8992 130.441 99.6263 137.256C95.9686 131.744 91.2195 127.04 85.6721 123.435L85.5385 123.302ZM129.374 135.15C121.956 134.977 114.644 136.936 108.306 140.794C112.139 134.456 114.107 127.166 113.984 119.761C117.598 126.21 122.924 131.536 129.374 135.15ZM135.483 138.054C131.351 141.8 126.4 144.527 121.026 146.018C115.652 147.508 110.004 147.72 104.533 146.637C108.507 139.592 126.803 134.65 135.45 138.021L135.483 138.054ZM138.558 99.8604C131.157 99.725 123.871 101.706 117.557 105.571C121.432 99.2727 123.426 91.9976 123.301 84.6042C127.219 90.7163 132.412 95.9091 138.524 99.827L138.558 99.8604ZM144.6 102.764C140.544 106.456 135.663 109.122 130.366 110.54C125.068 111.958 119.508 112.086 114.151 110.913C118.192 104.002 136.922 98.8924 144.567 102.731L144.6 102.764ZM140.527 108.507C137.096 114.622 135.248 121.496 135.15 128.506C131.535 122.437 126.463 117.366 120.394 113.751C127.41 113.56 134.288 111.754 140.493 108.474L140.527 108.507ZM146.269 104.367C147.528 109.698 147.464 115.255 146.085 120.556C144.705 125.857 142.052 130.741 138.354 134.782C134.215 129.574 139.124 110.844 146.236 104.334L146.269 104.367ZM130.079 78.6943C137.002 78.2395 143.755 76.3518 149.911 73.1506C146.457 79.2762 144.628 86.1841 144.601 93.2161C140.987 87.2875 136.008 82.3086 130.079 78.6943ZM155.487 68.9769C159.326 75.5536 154.65 93.2487 147.438 99.5926C146.22 94.2187 146.316 88.6302 147.717 83.3006C149.118 77.9711 151.783 73.0577 155.487 68.9769ZM173.213 90.0421C169.787 90.3291 166.384 90.8536 163.03 91.612C159.608 92.559 156.321 93.9393 153.248 95.7194C156.849 89.4048 158.726 82.2546 158.691 74.9861C162.15 81.2543 167.206 86.495 173.347 90.1756L173.213 90.0421ZM179.59 93.0797C175.556 96.8422 170.664 99.5609 165.339 100.999C160.014 102.436 154.419 102.55 149.041 101.329C155.184 94.1167 171.677 89.7084 179.723 93.2133L179.59 93.0797ZM234.142 106.363C227.225 106.582 220.461 108.448 214.41 111.806C215.924 108.712 217.175 105.495 218.15 102.191C218.932 98.7288 219.456 95.2136 219.72 91.6742C223.357 97.6764 228.34 102.751 234.275 106.497L234.142 106.363ZM240.952 109.434C235.543 116.112 220.786 120.72 210.37 117.716C214.427 113.98 219.325 111.277 224.649 109.836C229.972 108.394 235.564 108.256 240.952 109.434ZM217.18 120.787C224.087 120.504 230.837 118.642 236.912 115.344C233.547 121.419 231.734 128.231 231.635 135.175C227.915 129.385 222.955 124.493 217.113 120.854L217.18 120.787ZM251.03 167.592C243.898 167.711 236.912 169.641 230.731 173.202C234.2 167.128 236.126 160.295 236.341 153.304C240.042 159.153 245.047 164.066 250.963 167.658L251.03 167.592ZM225.155 177.109C221.583 170.265 226.793 150.901 233.337 146.627C234.571 152.004 234.464 157.603 233.025 162.93C231.587 168.257 228.861 173.149 225.088 177.176L225.155 177.109ZM241.612 202.848C238.11 203.002 234.631 203.506 231.229 204.351C227.83 205.26 224.556 206.584 221.48 208.292C224.945 202.022 226.793 194.988 226.857 187.826C230.254 194.124 235.341 199.349 241.545 202.915L241.612 202.848ZM215.737 212.232C214.444 206.885 214.506 201.3 215.917 195.983C217.329 190.666 220.045 185.785 223.819 181.783C225.077 187.147 224.991 192.738 223.57 198.062C222.148 203.385 219.435 208.275 215.67 212.299L215.737 212.232ZM162.354 200.518C165.903 200.488 169.439 200.085 172.904 199.315C176.266 198.3 179.529 196.981 182.653 195.375C179.338 201.35 177.452 208.013 177.143 214.839C173.365 208.999 168.278 204.118 162.287 200.584L162.354 200.518ZM156.278 197.714C162.087 190.635 178.747 186.194 186.66 189.498C183.354 195.809 164.49 200.985 156.211 197.78L156.278 197.714ZM127.398 210.036C134.343 210.098 141.187 208.36 147.263 204.993C143.978 211.118 142.214 217.942 142.12 224.891C138.465 218.833 133.389 213.757 127.331 210.102L127.398 210.036ZM120.754 207.399C123.759 201.122 143.691 195.745 151.837 199.083C147.653 202.805 142.659 205.5 137.252 206.955C131.845 208.41 126.173 208.585 120.687 207.465L120.754 207.399ZM101.292 184.13C108.414 184.343 115.451 182.537 121.591 178.92C118.292 184.991 116.451 191.747 116.214 198.652C112.417 192.727 107.283 187.777 101.225 184.197L101.292 184.13ZM127.367 174.88C130.972 181.423 126.063 200.287 119.152 205.462C117.999 200.094 118.137 194.529 119.553 189.224C120.97 183.92 123.625 179.026 127.3 174.947L127.367 174.88ZM144.86 195.912C137.975 196.14 131.239 197.982 125.195 201.289C128.492 195.244 130.311 188.506 130.505 181.624C134.138 187.414 139.019 192.319 144.793 195.979L144.86 195.912ZM129.871 174.245C139.152 175.513 149.935 186.964 152.238 196.612C144.659 196.446 131.606 183.593 129.738 174.379L129.871 174.245ZM111.077 148.773C118.154 148.888 125.128 147.064 131.242 143.497C129.562 146.609 128.24 149.902 127.302 153.313C126.408 156.702 125.948 160.191 125.932 163.696C122.229 157.603 117.051 152.54 110.876 148.974L111.077 148.773ZM137.052 139.49C140.156 147.803 135.581 164.73 128.97 169.939C127.686 164.638 127.734 159.102 129.109 153.824C130.484 148.547 133.144 143.691 136.852 139.69L137.052 139.49ZM154.578 160.488C147.654 160.681 140.871 162.5 134.78 165.798C138.206 159.56 139.977 152.549 139.923 145.432C143.399 151.64 148.367 156.883 154.378 160.689L154.578 160.488ZM161.021 163.593C156.981 167.365 152.075 170.084 146.736 171.511C141.396 172.938 135.788 173.029 130.406 171.775C134.448 168.006 139.354 165.289 144.693 163.862C150.031 162.436 155.639 162.343 161.021 163.593ZM180.751 186.661C173.619 186.586 166.586 188.333 160.318 191.737C161.842 188.654 163.104 185.449 164.091 182.155C164.924 178.688 165.361 175.137 165.394 171.572C169.172 177.866 174.491 183.094 180.851 186.761L180.751 186.661ZM154.442 195.944C153.186 190.606 153.254 185.041 154.639 179.735C156.024 174.428 158.685 169.54 162.39 165.496C166.463 170.971 161.286 190.035 154.542 196.045L154.442 195.944ZM143.359 179.72C141.523 177.884 139.186 176.682 136.682 174.779C143.726 174.67 150.633 172.81 156.781 169.369C155.345 172.269 154.096 175.257 153.041 178.317C152.193 181.881 151.645 185.511 151.404 189.167C151.493 189.278 151.594 189.379 151.704 189.468C151.371 189.468 151.404 189.167 151.27 189.034C148.993 185.7 146.375 182.612 143.459 179.82L143.359 179.72ZM164.393 164.026C169.831 165.848 174.772 168.906 178.827 172.961C182.882 177.016 185.94 181.957 187.762 187.395C182.314 185.644 177.361 182.62 173.315 178.573C169.268 174.527 166.245 169.575 164.493 164.127L164.393 164.026ZM146.6 140.023C146.428 139.884 146.272 139.728 146.133 139.556C149.138 139.379 152.127 138.999 155.081 138.42C158.909 137.454 162.6 136.007 166.065 134.112C162.639 140.35 160.868 147.362 160.922 154.478C159.483 152.198 157.9 150.012 156.182 147.935C153.445 144.856 150.246 142.221 146.701 140.123L146.6 140.023ZM171.841 130.206C175.78 135.881 170.804 155.078 163.859 160.621C162.665 155.291 162.775 149.751 164.183 144.473C165.59 139.195 168.251 134.334 171.941 130.306L171.841 130.206ZM199.319 116.081C192.307 116.208 185.431 118.042 179.287 121.425C182.811 115.161 184.619 108.078 184.53 100.892C188.011 107.148 193.092 112.367 199.252 116.014L199.319 116.081ZM205.662 118.952C201.622 122.704 196.73 125.416 191.407 126.853C186.084 128.29 180.492 128.41 175.113 127.201C179.521 120.657 196.982 115.881 205.662 118.952ZM181.757 130.372C188.644 130.115 195.382 128.287 201.455 125.028C198.141 131.11 196.342 137.902 196.212 144.827C192.595 138.94 187.643 133.988 181.757 130.372ZM196.645 151.938C189.801 152.506 175.68 138.585 174.379 129.671C179.613 131.289 184.384 134.136 188.293 137.975C192.201 141.814 195.134 146.533 196.846 151.738L196.645 151.938ZM189.501 151.471C182.514 151.647 175.675 153.515 169.569 156.915C172.897 150.745 174.749 143.888 174.979 136.883C178.52 142.908 183.631 147.859 189.768 151.204L189.501 151.471ZM195.844 154.609C191.828 158.352 186.953 161.049 181.649 162.465C176.345 163.88 170.774 163.969 165.428 162.724C169.425 158.859 174.332 156.065 179.696 154.6C185.059 153.135 190.705 153.046 196.111 154.342L195.844 154.609ZM215.373 177.343C208.517 177.422 201.777 179.127 195.708 182.32C199.014 176.169 200.768 169.303 200.818 162.321C204.397 168.44 209.505 173.525 215.64 177.076L215.373 177.343ZM189.631 186.794C185.759 181.052 190.835 161.287 197.646 156.412C201.485 162.788 196.743 180.75 189.898 186.527L189.631 186.794ZM171.705 165.528C178.737 165.664 185.678 163.911 191.804 160.452C188.456 166.572 186.634 173.41 186.493 180.384C182.895 174.282 177.922 169.104 171.972 165.261L171.705 165.528ZM221.683 180.381C218.043 186.758 198.178 192.135 191.267 188.496C195.278 184.653 200.186 181.874 205.545 180.41C210.903 178.946 216.542 178.844 221.95 180.114L221.683 180.381ZM197.644 191.534C204.702 191.42 211.621 189.549 217.776 186.09C214.327 192.249 212.456 199.166 212.332 206.223C208.708 200.218 203.779 195.107 197.911 191.267L197.644 191.534ZM199.95 155.844C207.061 155.409 221.95 170.165 222.25 178.144C217.008 176.458 212.259 173.514 208.418 169.568C204.577 165.622 201.762 160.796 200.217 155.51L199.95 155.844ZM207.328 156.544C214.373 156.177 221.234 154.164 227.361 150.667C224.038 156.78 222.175 163.579 221.917 170.532C218.308 164.72 213.407 159.819 207.596 156.211L207.328 156.544ZM200.685 153.574C204.057 147.063 221.886 142.12 231.267 145.225C227.211 148.844 222.355 151.451 217.097 152.833C211.84 154.214 206.33 154.331 201.019 153.173L200.685 153.574ZM204.892 147.497C208.257 141.359 210.154 134.525 210.436 127.532C214.156 133.347 219.158 138.234 225.058 141.82C218.105 141.965 211.291 143.787 205.192 147.13L204.892 147.497ZM198.949 151.704C197.673 146.333 197.752 140.729 199.18 135.397C200.609 130.064 203.341 125.17 207.131 121.155C208.312 126.442 208.217 131.935 206.852 137.178C205.487 142.421 202.892 147.263 199.283 151.304L198.949 151.704ZM183.663 94.8154C191.375 95.1821 206.297 110.104 205.896 117.049C200.667 115.366 195.933 112.421 192.113 108.473C188.293 104.525 185.506 99.6968 183.997 94.4147L183.663 94.8154ZM173.177 125.865C171.885 120.495 171.943 114.888 173.348 109.545C174.752 104.202 177.459 99.2909 181.225 95.2497C182.416 100.537 182.338 106.031 180.997 111.283C179.656 116.535 177.091 121.395 173.511 125.465L173.177 125.865ZM155.584 104.199C162.699 104.159 169.69 102.333 175.917 98.8892C172.477 104.959 170.585 111.781 170.406 118.754C166.676 112.807 161.598 107.821 155.584 104.199ZM170.806 126.099C163.194 125.766 149.908 112.546 148.54 103.833C153.791 105.436 158.569 108.305 162.451 112.188C166.334 116.071 169.203 120.848 170.806 126.099ZM163.729 125.699C156.764 125.848 149.934 127.645 143.797 130.942C147.224 124.756 148.974 117.781 148.873 110.71C152.581 116.823 157.785 121.89 163.996 125.432L163.729 125.699ZM169.972 128.737C164.729 135.381 149.205 140.023 139.556 136.919C145.733 129.74 162.66 125.232 170.239 128.47L169.972 128.737ZM161.355 161.723C156.05 160.118 151.223 157.227 147.304 153.308C143.384 149.388 140.494 144.562 138.888 139.256C144.219 140.787 149.086 143.616 153.053 147.491C157.021 151.365 159.965 156.163 161.622 161.456L161.355 161.723ZM125.999 171.041C120.774 169.419 116.024 166.551 112.156 162.683C108.288 158.816 105.42 154.065 103.799 148.841C110.91 148.206 124.664 161.693 126.266 170.774L125.999 171.041ZM95.5853 153.315C92.0675 159.449 90.171 166.378 90.075 173.447C86.4546 167.322 81.3444 162.212 75.2193 158.592C82.483 158.736 89.6386 156.813 95.8524 153.048L95.5853 153.315ZM101.261 149.375C102.505 154.727 102.422 160.302 101.02 165.614C99.6168 170.927 96.9367 175.817 93.2127 179.857C89.7745 173.414 94.7506 154.684 101.528 149.108L101.261 149.375ZM118.153 169.806C118.387 170.04 118.62 170.273 118.887 170.54C117.819 170.941 116.684 170.674 115.616 170.808C110.121 171.163 104.778 172.762 99.9905 175.483C99.7568 175.717 99.3561 175.65 98.7552 175.851C102.434 169.809 104.343 162.857 104.265 155.785C105.244 156.729 106.067 157.822 106.702 159.023C109.875 163.269 113.857 166.843 118.42 169.539L118.153 169.806ZM125.331 173.445C121.323 177.194 116.46 179.907 111.165 181.351C105.871 182.794 100.304 182.923 94.9487 181.727C99.7569 174.515 117.085 169.806 125.598 173.177L125.331 173.445ZM116.581 206.497C111.324 204.799 106.547 201.876 102.641 197.97C98.735 194.064 95.8125 189.287 94.1138 184.03C99.4385 185.573 104.3 188.406 108.266 192.279C112.232 196.151 115.18 200.944 116.848 206.23L116.581 206.497ZM152.872 201.053C156.444 207.83 151.802 225.491 144.757 231.668C143.553 226.227 143.687 220.575 145.147 215.196C146.607 209.817 149.349 204.872 153.139 200.786L152.872 201.053ZM170.331 222.118C163.555 222.266 156.904 223.98 150.9 227.127C154.257 221.011 156.079 214.171 156.21 207.195C159.808 213.128 164.733 218.144 170.598 221.851L170.331 222.118ZM177.042 225.155C172 231.866 153.537 236.842 146.593 233.304C150.611 229.461 155.524 226.679 160.887 225.21C166.249 223.741 171.893 223.63 177.309 224.888L177.042 225.155ZM153.236 236.342C160.122 236.117 166.859 234.275 172.901 230.965C169.692 237.211 167.88 244.081 167.591 251.097C164.133 245.058 159.308 239.913 153.504 236.075L153.236 236.342ZM155.51 200.685C163.489 200.851 175.941 213.637 177.776 222.952C168.829 220.816 156.778 208.698 155.677 200.318L155.51 200.685ZM188.362 191.735C189.57 197.101 189.46 202.68 188.041 207.994C186.622 213.309 183.936 218.2 180.214 222.251C177.009 214.372 181.918 196.109 188.529 191.368L188.362 191.735ZM205.554 212.6C198.636 212.933 191.891 214.877 185.856 218.277C189.347 212.136 191.22 205.208 191.3 198.145C195.036 203.866 199.982 208.697 205.788 212.299L205.554 212.6ZM212.498 215.738C208.483 219.507 203.603 222.231 198.287 223.67C192.971 225.108 187.384 225.217 182.016 223.987C186.491 216.975 202.616 212.266 212.665 215.37L212.498 215.738ZM208.358 221.547C204.933 227.688 203.086 234.583 202.981 241.613C199.361 235.528 194.277 230.444 188.192 226.824C195.345 226.741 202.353 224.795 208.525 221.18L208.358 221.547ZM190.666 191.034C195.935 192.638 200.729 195.514 204.624 199.409C208.519 203.304 211.395 208.098 212.999 213.367C205.955 213.067 191.834 199.08 190.833 190.666L190.666 191.034ZM225.655 180.948C237.273 184.419 247.055 195.67 248.356 203.649C243.006 202.006 238.14 199.078 234.183 195.121C230.226 191.164 227.298 186.298 225.655 180.948ZM259.009 172.432C262.28 179.91 257.471 197.605 250.827 202.981C247.355 195.97 252.365 177.073 259.009 172.432ZM233.234 181.849C240.291 181.768 247.21 179.882 253.333 176.372C249.896 182.505 247.994 189.378 247.789 196.404C244.121 190.498 239.14 185.517 233.234 181.849ZM226.824 178.845C230.845 175.107 235.715 172.403 241.014 170.966C246.313 169.529 251.881 169.402 257.239 170.596C254.501 176.94 234.603 182.216 226.858 178.811L226.824 178.845ZM235.574 146.126C243.553 146.893 255.304 157.642 257.907 168.459C252.634 166.858 247.839 163.979 243.948 160.076C240.058 156.174 237.192 151.37 235.607 146.092L235.574 146.126ZM209.702 120.254C214.949 121.847 219.723 124.71 223.601 128.588C227.479 132.466 230.341 137.239 231.935 142.487C224.79 142.421 210.569 128.266 209.802 120.153L209.702 120.254ZM219.253 84.9971C224.523 86.635 229.316 89.5298 233.218 93.4321C237.121 97.3344 240.015 102.127 241.653 107.397C233.173 106.063 219.753 92.6425 219.353 84.8969L219.253 84.9971ZM208.4 115.88C207.241 110.49 207.411 104.899 208.895 99.5881C210.378 94.2778 213.131 89.4077 216.916 85.3979C218.245 90.7711 218.186 96.3944 216.743 101.739C215.3 107.083 212.521 111.972 208.667 115.947L208.4 115.88ZM191.041 94.915C197.949 94.6988 204.709 92.8567 210.773 89.5382C207.337 95.6167 205.552 102.489 205.596 109.47C201.938 103.644 197.05 98.6875 191.275 94.9484L191.041 94.915ZM180.258 90.8094C174.994 89.1941 170.206 86.3139 166.313 82.4207C162.42 78.5275 159.539 73.7397 157.924 68.4759C166.638 70.1779 178.923 81.1275 180.425 90.776L180.258 90.8094ZM123.002 75.7569C128.778 68.7119 146.84 63.9363 154.051 67.4746C149.895 71.1287 144.954 73.7789 139.611 75.2207C134.268 76.6625 128.665 76.8574 123.235 75.7903L123.002 75.7569ZM144.968 100.528C139.729 98.7799 134.968 95.8371 131.063 91.9319C127.158 88.0267 124.215 83.2663 122.467 78.0272C130.113 78.06 145.502 93.3829 145.201 100.494L144.968 100.528ZM135.717 135.684C130.435 134.051 125.631 131.155 121.722 127.245C117.813 123.336 114.916 118.532 113.283 113.25C118.622 114.817 123.486 117.688 127.437 121.605C131.389 125.521 134.303 130.36 135.917 135.684L135.717 135.684ZM100.427 145.335C95.1585 143.557 90.3719 140.587 86.4402 136.655C82.5085 132.723 79.5378 127.937 77.7596 122.668C87.0075 123.702 98.0573 135.286 100.627 145.335L100.427 145.335ZM67.4074 154.185C66.1484 148.72 66.2481 143.028 67.6978 137.61C69.1475 132.191 71.9029 127.21 75.723 123.102C76.8783 128.557 76.7464 134.207 75.3377 139.602C73.929 144.998 71.2823 149.991 67.6077 154.185L67.4074 154.185ZM90.8757 180.392C85.6317 178.704 80.8649 175.792 76.9697 171.897C73.0745 168.002 70.1628 163.235 68.4753 157.991C73.7679 159.559 78.5897 162.413 82.5101 166.298C86.4304 170.184 89.3274 174.98 90.9424 180.258L90.8757 180.392ZM86.0006 188.538C82.6417 194.606 80.8187 201.403 80.6907 208.337C76.9919 202.435 72.0042 197.447 66.102 193.748C73.1628 193.731 80.1031 191.915 86.2677 188.471L86.0006 188.538ZM91.7767 184.431C95.4487 190.908 90.5727 209.604 83.7615 214.88C82.5614 209.519 82.6822 203.947 84.1133 198.643C85.5444 193.339 88.2431 188.461 91.9771 184.431L91.7767 184.431ZM109.203 205.463C102.309 205.633 95.5596 207.479 89.5377 210.84C93.0143 204.744 94.8658 197.858 94.9145 190.841C96.7338 193.787 98.9463 196.472 101.491 198.82C103.92 201.271 106.569 203.494 109.403 205.463L109.203 205.463ZM116.213 208.401C112.158 212.129 107.265 214.825 101.947 216.261C96.6294 217.696 91.0442 217.83 85.6645 216.649C90.3391 210.039 106.665 205.597 116.213 208.401ZM107.397 241.654C102.117 239.914 97.3187 236.96 93.3878 233.029C89.4569 229.098 86.5029 224.3 84.7629 219.02C92.6753 220.188 104.86 230.637 107.464 241.721L107.397 241.654ZM145.925 235.107C151.214 236.779 156.023 239.699 159.945 243.621C163.867 247.543 166.787 252.352 168.459 257.641C163.159 256.024 158.338 253.13 154.421 249.212C150.503 245.294 147.608 240.473 145.992 235.174L145.925 235.107ZM203.214 250.594C199.138 254.334 194.224 257.041 188.885 258.488C183.546 259.935 177.938 260.079 172.532 258.909C176.591 255.122 181.517 252.389 186.879 250.951C192.24 249.513 197.872 249.413 203.281 250.66L203.214 250.594ZM181.248 225.823C189.728 227.024 202.214 239.376 203.615 248.19C198.344 246.624 193.547 243.768 189.659 239.879C185.771 235.991 182.914 231.194 181.348 225.923L181.248 225.823ZM238.538 241.042C234.51 244.818 229.623 247.554 224.3 249.015C218.977 250.475 213.378 250.616 207.989 249.425C211.027 243.315 228.822 238.339 238.638 241.142L238.538 241.042ZM216.605 216.238C221.89 217.952 226.693 220.894 230.621 224.823C234.549 228.751 237.491 233.554 239.206 238.839C231.794 238.906 217.84 225.085 216.572 216.205L216.605 216.238ZM249.691 207.522C250.953 212.914 250.866 218.534 249.439 223.886C248.012 229.237 245.288 234.155 241.509 238.204C240.177 232.812 240.226 227.172 241.65 221.803C243.074 216.435 245.828 211.512 249.658 207.488L249.691 207.522ZM271.397 152.433L271.53 153.701L271.597 154.97L271.664 155.571L271.764 156.873L271.764 157.474L271.797 158.108L271.83 158.743L271.83 159.41L271.864 160.045L271.897 160.679L271.863 161.313L271.897 161.948L271.897 164.418L271.863 165.72L271.729 169.46L271.662 170.061L271.629 170.695L271.596 171.329L271.562 171.964L271.462 173.332L271.395 173.933L271.328 174.601L271.261 175.202L271.161 175.836L271.094 176.437L270.961 177.706L270.86 178.274L270.794 178.941L270.66 179.542L270.56 180.177L270.493 180.778L270.393 181.412L270.259 182.013L270.159 182.647L269.925 183.883L269.691 185.118L269.458 186.353C269.023 188.189 268.589 190.026 268.188 191.762L267.32 194.834L266.919 196.035L266.552 197.271L266.151 197.671L265.55 199.474L265.317 200.042L265.116 200.643L264.448 202.446L264.215 203.013L263.814 203.414L263.346 204.549L263.113 205.184L262.879 205.751L262.077 207.487L261.677 207.888L261.176 209.056L260.608 210.158L260.341 210.759L259.941 211.16L259.506 211.594L259.106 211.995L258.672 212.429L258.271 212.829L257.837 213.263L257.403 213.697L256.769 214.799L256.335 215.233L255.934 215.634L255.299 216.736L254.632 217.804L254.198 218.238L253.53 219.307L253.096 219.741L252.662 220.175L252.228 220.609L251.794 221.043L251.359 221.477L250.925 221.911L250.491 222.345L250.024 222.813L249.59 223.247L249.156 223.681L248.288 224.549L247.82 225.016L248.188 224.649L248.755 224.081L249.156 223.681L249.323 223.514L249.49 222.746L249.59 222.245L249.657 221.778L249.69 221.277L249.79 220.242L249.79 219.708L249.79 219.173L249.791 218.639L249.757 218.138L249.69 217.604L249.524 217.437L249.49 216.937L249.323 216.77L249.156 216.603L248.956 215.534L256.602 207.888L257.437 207.054L257.938 206.553L258.338 206.152L258.739 205.751L259.14 205.351L259.54 204.95L260.141 204.015L260.509 203.648L260.909 203.247L261.277 202.88L261.677 202.479L262.045 202.112L262.412 201.745L262.779 201.378L263.146 201.01L263.514 200.643L263.848 200.309L264.215 199.942L264.616 198.94L264.983 198.573L265.317 198.239L265.651 197.905L265.984 197.571L266.151 197.004L266.285 196.536L266.652 196.169L266.786 195.702L266.919 195.167L267.053 194.7L267.187 194.166L267.487 192.597L267.588 192.096L267.688 191.528L267.754 190.994L267.821 190.46L267.888 189.926L261.445 183.349L261.512 182.815L261.512 182.281L261.579 181.747L261.612 181.179L261.612 180.645L261.612 179.576L261.579 179.009L261.612 178.441L261.546 177.907L261.512 177.34L261.446 176.204L261.246 174.535L261.112 173.4L260.979 172.799L260.912 172.265L260.778 171.664L260.745 171.23L261.379 170.596L264.718 167.257L265.119 166.856L266.822 165.153L266.989 164.986L267.189 164.786L267.356 164.619L267.723 164.252L268.124 163.517L268.491 163.15L268.892 162.749L269.46 161.514L269.627 161.347L269.827 161.147L269.994 160.98L270.194 160.779L270.361 160.612L270.528 160.445L270.895 160.078L271.096 159.878L271.263 159.711L271.43 159.544L271.63 159.344L271.864 158.576L272.064 158.375L272.198 157.841L272.531 157.507L272.732 157.307L273.8 156.239L271.397 152.433ZM260.411 167.624C256.506 161.582 261.448 143.286 268.56 137.042C271.364 143.986 268.458 160.112 260.478 167.691L260.411 167.624ZM241.984 146.326C249.209 146.51 256.346 144.708 262.617 141.116C259.287 147.188 257.433 153.959 257.207 160.881C253.445 154.861 248.234 149.88 242.051 146.392L241.984 146.326ZM236.108 143.655C240.129 139.827 245.037 137.057 250.393 135.594C255.748 134.131 261.383 134.02 266.791 135.273C262.016 141.316 247.827 146.692 236.175 143.722L236.108 143.655ZM267.359 132.835C260.348 133.17 246.059 119.015 245.059 110.535C253.672 111.737 265.723 123.921 267.425 132.902L267.359 132.835ZM244.092 90.4036C252.268 98.9928 258.666 109.113 262.919 120.182C261.083 118.346 259.28 116.544 257.244 114.975C253.783 112.145 249.819 109.993 245.559 108.632C245.063 108.499 244.61 108.238 244.247 107.875C243.884 107.511 243.623 107.059 243.49 106.562C241.683 101.053 238.605 96.0455 234.505 91.9455C230.405 87.8454 225.397 84.7675 219.888 82.9604C219.327 82.8103 218.816 82.5154 218.406 82.1052C217.996 81.695 217.701 81.184 217.551 80.6236C215.309 74.1392 211.543 68.2885 206.568 63.5642C220.894 69.7136 233.718 78.8927 244.159 90.4703L244.092 90.4036ZM215.781 81.258C210.492 79.657 205.68 76.7748 201.772 72.8671C197.864 68.9595 194.982 64.1473 193.381 58.8578C198.667 60.5001 203.474 63.4033 207.388 67.3173C211.302 71.2313 214.206 76.0387 215.848 81.3249L215.781 81.258ZM182.862 90.0747C181.543 84.7006 181.596 79.0813 183.014 73.7321C184.431 68.3829 187.17 63.4752 190.977 59.459C192.316 64.8375 192.28 70.4665 190.874 75.8282C189.468 81.1899 186.735 86.1119 182.929 90.1414L182.862 90.0747ZM165.202 68.9427C172.174 68.7822 179.007 66.9619 185.134 63.6327C182.061 69.7867 180.202 76.4744 179.657 83.3309C176.031 77.5104 171.106 72.6086 165.269 69.0095L165.202 68.9427ZM189.475 58.0235C182.129 65.369 167.372 69.3097 158.692 66.1054C162.768 62.3374 167.705 59.6247 173.071 58.2043C178.437 56.7838 184.069 56.6988 189.475 57.9567L189.475 58.0235ZM123.47 62.0686C140.019 55.5487 157.911 53.1746 175.586 55.1534C175.086 56.0548 174.384 55.9547 173.817 56.0549C167.552 57.5058 161.775 60.5675 157.056 64.937C156.783 65.2229 156.432 65.4226 156.046 65.5116C155.66 65.6006 155.257 65.575 154.886 65.438C145.66 63.4886 136.037 65.0614 127.91 69.8471C125.823 71.0813 123.875 72.5366 122.1 74.1878C121.829 74.5212 121.468 74.7704 121.06 74.9064C120.652 75.0424 120.214 75.0595 119.797 74.9558C113.429 73.5118 106.792 73.7889 100.566 75.7587C99.9814 76.007 99.3232 76.019 98.7299 75.7922C106.396 70.2513 114.689 65.6338 123.437 62.0352L123.47 62.0686ZM119.162 76.8589C115.003 80.5787 110.034 83.2788 104.651 84.7454C99.2673 86.2119 93.6162 86.4046 88.1457 85.3081C92.4196 78.6305 109.013 73.9886 119.129 76.8256L119.162 76.8589ZM110.078 109.845C104.818 108.206 100.035 105.314 96.1386 101.418C92.2427 97.5221 89.3509 92.7386 87.7115 87.4783C94.7894 87.3441 107.408 99.7628 110.045 109.812L110.078 109.845ZM85.3077 87.8791C86.4779 93.2493 86.3522 98.8212 84.941 104.134C83.5298 109.446 80.8736 114.346 77.1923 118.428C73.3868 112.486 78.3963 93.3884 85.2743 87.8457L85.3077 87.8791ZM76.6265 98.0292C76.159 99.6318 75.6914 100.9 75.3575 102.169C73.9453 107.79 73.8307 113.658 75.0222 119.33C75.155 119.731 75.1755 120.161 75.0813 120.573C74.9871 120.985 74.7819 121.363 74.4879 121.667C70.4736 125.973 67.553 131.182 65.9722 136.852C64.3913 142.523 64.1965 148.491 65.4042 154.252C65.5495 154.832 65.5396 155.439 65.3754 156.014C65.2113 156.588 64.8987 157.109 64.4691 157.524C60.5852 161.746 57.7786 166.843 56.2883 172.382L55.6871 174.318C55.6871 174.318 55.6871 174.318 55.3532 174.652C50.4805 155.155 61.8685 113.388 76.5931 97.9958L76.6265 98.0292ZM66.2719 158.659C67.5146 164.027 67.4247 169.617 66.0101 174.942C64.5955 180.267 61.8992 185.165 58.1565 189.208C56.9037 183.839 56.9853 178.244 58.3942 172.912C59.803 167.581 62.4963 162.676 66.2384 158.626L66.2719 158.659ZM59.2913 193.348C64.5235 194.971 69.2816 197.844 73.1552 201.717C77.0287 205.591 79.9012 210.349 81.5247 215.581C73.7124 214.981 60.1587 201.561 59.2579 193.315L59.2913 193.348ZM96.6125 248.966C82.2652 237.833 71.0035 223.215 63.8976 206.502C65.9315 208.559 68.1311 210.446 70.4741 212.143C73.744 214.465 77.3159 216.33 81.0905 217.685C81.5616 217.795 81.9926 218.035 82.3347 218.377C82.6768 218.719 82.9164 219.15 83.0267 219.621C85.5729 227.562 90.7855 234.379 97.7818 238.917C100.556 240.919 103.633 242.463 106.896 243.49C107.321 243.582 107.711 243.795 108.019 244.103C108.327 244.41 108.54 244.801 108.632 245.226C110.843 252.2 115.001 258.397 120.616 263.087C111.977 259.525 103.884 254.76 96.5791 248.933L96.6125 248.966ZM110.535 244.792C115.9 246.422 120.782 249.349 124.747 253.314C128.712 257.279 131.639 262.16 133.269 267.526C127.96 265.789 123.134 262.826 119.185 258.876C115.235 254.926 112.271 250.101 110.535 244.792ZM143.655 236.109C147.36 242.886 141.649 263.753 135.406 266.524C134.244 261.165 134.387 255.605 135.822 250.311C137.258 245.018 139.944 240.147 143.655 236.109ZM161.514 257.107C157.99 257.266 154.49 257.769 151.064 258.61C147.766 259.568 144.568 260.843 141.516 262.417C144.872 256.21 146.649 249.274 146.692 242.218C150.465 248.223 155.543 253.301 161.548 257.074L161.514 257.107ZM137.442 268.427C141.683 261.716 158.576 257.041 167.958 260.145C163.903 263.863 159.016 266.556 153.707 267.997C148.397 269.438 142.82 269.586 137.442 268.427ZM151.097 270.73C152.878 269.809 154.794 269.178 156.773 268.86C161.395 267.436 165.639 264.994 169.193 261.714C169.527 261.325 169.966 261.04 170.457 260.892C170.948 260.744 171.471 260.74 171.964 260.879C177.763 262.146 183.783 261.991 189.51 260.427C195.237 258.863 200.5 255.935 204.85 251.895C205.061 251.632 205.343 251.435 205.663 251.328C205.983 251.222 206.327 251.21 206.653 251.294C213.532 252.804 220.694 252.388 227.353 250.091C227.353 250.091 227.686 250.091 228.421 250.091C216.798 259.035 203.383 265.368 189.09 268.657C174.133 271.996 155.838 272.666 151.097 270.73ZM90.0018 252.305C97.8028 258.763 106.438 264.142 115.674 268.295C128.846 274.263 143.029 277.682 157.473 278.375C162.314 278.608 167.122 278.407 171.929 278.206C183.361 277.348 194.602 274.793 205.283 270.625C214.842 267.067 223.83 262.128 231.959 255.966C239.174 249.856 246.02 243.323 252.46 236.4C258.373 229.3 263.365 221.481 267.319 213.129C273.976 199.218 277.737 184.099 278.373 168.691C279.739 142.299 271.998 116.24 256.444 94.8763C250 86.402 242.557 78.7353 234.278 72.042C222.935 63.1322 209.995 56.4702 196.152 52.414C181.798 48.2675 166.793 46.8531 151.916 48.2443C139.903 49.3963 128.148 52.4513 117.094 57.2948C109.389 60.7059 102.051 64.89 95.1914 69.783C87.4709 75.5019 80.4648 82.127 74.3236 89.516C70.2148 94.431 66.5392 99.6926 63.3382 105.242C55.4819 118.866 50.4796 133.945 48.6359 149.563C46.7922 165.18 48.1457 181.009 52.6139 196.086C56.3645 208.747 62.258 220.672 70.0385 231.341C75.7666 239.156 82.4761 246.202 90.0018 252.305ZM80.9884 241.289C80.2874 240.588 79.6197 239.92 78.9186 239.219C78.2176 238.518 77.55 237.85 76.8823 237.183L75.0462 234.946C74.3785 234.278 73.7108 233.61 73.2769 232.709C72.8429 231.808 71.9415 231.374 71.541 230.439C71.1404 229.504 70.4727 228.903 69.9052 228.135C69.3377 227.368 68.8704 226.566 68.3029 225.799C67.7354 225.031 67.3015 224.196 66.8008 223.428C66.1331 222.761 65.7993 221.826 65.3319 221.025C64.898 220.19 64.4307 219.389 63.9634 218.588C63.496 217.786 63.062 216.952 62.6281 216.117L61.3596 213.647C60.9257 212.812 60.5585 211.977 60.1579 211.109C59.7574 210.241 59.3902 209.473 59.0564 208.605C58.7226 207.737 58.2887 206.903 57.9549 206.035C57.6211 205.167 57.2539 204.332 56.9869 203.464L56.0188 200.893L55.151 198.289C54.884 197.421 54.5836 196.52 54.35 195.619C54.1164 194.717 53.8159 193.883 53.5823 192.981C53.3487 192.08 53.1151 191.245 52.8814 190.344C52.6478 189.442 52.5143 188.574 52.2807 187.673L51.7467 185.002L51.2795 182.331C51.1461 181.396 50.9792 180.495 50.8791 179.594C50.779 178.692 50.6122 177.791 50.5121 176.889L50.2118 174.185C50.1117 173.284 50.045 172.349 50.0117 171.447C49.9784 170.546 49.8783 169.645 49.845 168.743L49.7117 166.006L49.712 163.268C49.6786 162.366 49.7121 161.465 49.7456 160.564L49.846 157.793L49.9797 155.122L50.2136 152.351C50.2805 151.483 50.4141 150.548 50.5477 149.68C50.6813 148.812 50.7482 147.877 50.8818 146.942L51.3161 144.238L51.7836 141.567L52.3514 138.862L52.9526 136.191L53.654 133.554L54.3886 130.883L55.2234 128.245L56.0918 125.641L57.0268 123.037L58.0619 120.466L59.1305 117.929C59.4644 117.061 59.8985 116.226 60.2658 115.391L61.4345 112.887L62.7368 110.383L64.0725 107.913L65.4415 105.475L66.9107 103.071L68.4132 100.701L70.016 98.3636L71.6855 96.0264L73.4218 93.7561L75.2248 91.4857L77.0278 89.282L79.0979 87.2119L81.1681 85.1418L83.2382 83.0717C104.535 61.7748 133.418 49.8089 163.534 49.8064C193.65 49.804 222.532 61.7652 243.825 83.0586C265.119 104.352 277.08 133.234 277.078 163.35C277.075 193.466 265.109 222.349 243.812 243.646L241.709 245.749L239.672 247.786L237.602 249.856L235.365 251.693L233.128 253.462L230.858 255.199L228.52 256.868L226.183 258.471L223.813 259.973L221.409 261.443L219.005 262.845L216.534 264.181L214.064 265.45L211.526 266.652L208.989 267.787L206.451 268.856L203.847 269.857L201.243 270.792L198.672 271.694L196.001 272.495L193.363 273.263L190.693 273.931L188.022 274.533L185.351 275.067C184.483 275.267 183.548 275.401 182.646 275.568L179.976 275.969L177.271 276.336L174.567 276.637L171.829 276.838L169.092 277.038L166.354 277.105L163.65 277.139L160.879 277.106L158.174 277.006L155.47 276.839C154.535 276.772 153.634 276.672 152.732 276.639L149.995 276.305L147.29 275.938L144.62 275.538L141.915 275.037L139.211 274.47C138.343 274.27 137.442 274.103 136.54 273.869C135.639 273.635 134.771 273.435 133.903 273.168C133.035 272.901 132.133 272.668 131.265 272.401C130.397 272.133 129.496 271.9 128.628 271.633L125.99 270.732L123.453 269.797L120.849 268.796C120.015 268.428 119.147 268.095 118.279 267.694L115.775 266.593L113.237 265.391L110.767 264.122C110.133 263.488 109.131 263.221 108.33 262.754C107.529 262.286 106.694 261.853 105.893 261.385C105.092 260.918 104.257 260.417 103.489 259.916C102.721 259.416 101.887 258.915 101.119 258.414C100.351 257.913 99.5165 257.346 98.782 256.812C98.0476 256.278 97.2462 255.744 96.4784 255.176C95.7106 254.609 94.9428 254.041 94.2084 253.44C93.4739 252.839 92.873 252.105 91.9716 251.671L89.7349 249.835C89.0338 249.134 88.3662 248.466 87.6985 247.798C87.0308 247.131 86.3298 246.43 85.6288 245.729C84.9277 245.028 84.26 244.36 83.5923 243.692C82.9246 243.025 81.6227 241.99 80.955 241.322L80.9884 241.289Z" fill="#D2C300" fill-opacity="0.3"/>
</g>
<defs>
<clipPath id="clip0_119_2">
<rect width="230.853" height="230.438" fill="white" transform="translate(326.183 162.944) rotate(135)"/>
</clipPath>
</defs>
</svg>
