<?xml version="1.0" encoding="utf-8"?>
<!-- Generator: Adobe Illustrator 16.0.4, SVG Export Plug-In . SVG Version: 6.00 Build 0)  -->
<!DOCTYPE svg PUBLIC "-//W3C//DTD SVG 1.1//EN" "http://www.w3.org/Graphics/SVG/1.1/DTD/svg11.dtd">
<svg version="1.1" id="Camada_1" xmlns="http://www.w3.org/2000/svg" xmlns:xlink="http://www.w3.org/1999/xlink" x="0px" y="0px"
	 width="300px" height="133.333px" viewBox="0 0 300 133.333" enable-background="new 0 0 300 133.333" xml:space="preserve">
<g>
	<path fill="#003056" d="M207.978,112.695c-0.313-0.082-0.64-0.129-0.969-0.141c-0.927-0.034-1.74-0.326-2.417-0.865
		c-0.186-0.147-0.372-0.3-0.558-0.454c0,0-1.333-1.202-1.899-1.872c-1.919-2.27-3.782-4.555-5.846-7.093l-0.106-0.131
		c-0.391-0.48-0.78-0.96-1.171-1.439c1.459-1.394,2.505-2.704,3.279-4.108c1.391-2.519,1.83-5.125,1.307-7.748
		c-0.793-3.972-3.37-6.65-7.452-7.746c-1.519-0.411-3.185-0.644-5.11-0.644l-0.515-0.006l-1.088-0.01h-9.151v37.56h8.936v-13.39
		c0.363-0.002,0.82-0.011,1.095-0.03c0.017-0.001,0.031-0.002,0.047-0.003c0.021,0.022,0.054,0.062,0.1,0.128
		c1.436,2.062,3.138,4.484,4.872,6.793c0.855,1.139,1.839,2.292,3.097,3.63c1.328,1.409,2.858,2.539,4.547,2.881
		c0,0,8.746-0.064,8.746,0c1.199-0.352,2.267-1.49,2.256-2.746C209.966,113.994,209.222,113.035,207.978,112.695z M190.901,95.071
		c-0.153,0.353-0.426,0.751-0.808,1.185c-0.533,0.604-1.2,0.873-2.161,0.873h-0.079c-0.163-0.004-0.325-0.005-0.486-0.006
		l-0.257-0.004c-0.646-0.004-1.3-0.008-1.894-0.056v-9.931c2.883-0.09,4.678,0.828,5.645,2.898
		C191.63,91.676,191.644,93.371,190.901,95.071z"/>
	<rect x="121.918" y="80.429" fill="#003056" width="10.415" height="37.621"/>
	<path fill="#003056" d="M119.032,80.425h-7.315c0,0,0,16.864,0.005,21.31c-3.993-4.024-18.377-18.523-19.588-19.781
		c-0.412-0.43-1.077-1.087-1.895-1.361c-0.326-0.111-0.658-0.167-0.984-0.167c-1.446,0-2.496,1.229-2.496,2.805l0,34.775
		l7.261,0.005l0.01-20.047c4.026,3.98,18.34,17.803,19.146,18.549c0.602,0.558,1.286,1.001,1.973,1.279
		c0.353,0.146,0.72,0.219,1.092,0.219c1.219,0,2.261-0.586,2.654-1.813c0.163-0.51,0.125-1.171,0.137-1.817V80.425z"/>
	<path fill="#003056" d="M73.134,111.005l-0.008-9.275l9.714-0.013v-7.059l-9.722,0.004l0.005-6.999h10.881v-7.217
		c0,0-16.245-0.004-20.994,0l-0.033,37.586h21.027v-7.022L73.134,111.005z"/>
	<path fill="#003056" d="M206.34,80.422c-2.219,0-4.025,1.755-4.025,3.912c0,2.205,1.768,3.932,4.025,3.932
		c2.244,0,4.004-1.727,4.004-3.932C210.344,82.141,208.595,80.422,206.34,80.422z M208.289,86.199
		c-0.071-0.094-0.142-0.335-0.248-0.863c-0.098-0.438-0.267-0.729-0.523-0.9c0.393-0.198,0.62-0.531,0.62-0.93
		c0-0.361-0.162-0.714-0.431-0.925c-0.296-0.193-0.646-0.322-1.392-0.322c-0.508,0-1.004,0.048-1.473,0.143l-0.115,0.023v4.003
		h1.158v-1.492h0.27c0.469,0,0.594,0.183,0.646,0.489l0.048,0.188c0.097,0.374,0.162,0.622,0.274,0.762l0.043,0.053h1.104
		c-0.494,0.499-1.152,0.772-1.866,0.772h-0.001h-0.039c-1.596,0-2.8-1.232-2.8-2.866c0-1.607,1.209-2.867,2.752-2.867h0.024
		c1.546,0,2.756,1.26,2.756,2.867c0,0.752-0.254,1.45-0.719,1.979L208.289,86.199z M206.91,83.621c0,0.369-0.51,0.409-0.729,0.409
		h-0.275v-0.819c0.08-0.011,0.192-0.021,0.34-0.021C206.687,83.19,206.91,83.335,206.91,83.621z"/>
	<path fill="#003056" d="M162.972,81.966c-5.068-1.956-10.503-2.082-15.789-0.366c-5.006,1.628-8.595,4.889-10.664,9.694
		c-2.522,5.857-2.28,11.702,0.719,17.373c2.01,3.802,5.159,6.509,9.357,8.043c2.156,0.785,4.55,1.315,7.326,1.324
		c0.097,0,0.288-0.013,0.384-0.016c0.464-0.017,0.878-0.058,1.154-0.082c0.693-0.061,1.693-0.151,2.987-0.418
		c6.727-1.367,11.401-5.243,13.893-11.519c1.268-3.192,1.671-6.648,1.201-10.27C172.658,88.967,169.104,84.336,162.972,81.966z
		 M163.834,103.003c-1.328,3.342-3.82,5.407-7.408,6.136c-0.541,0.111-1.103,0.161-1.651,0.208l-0.038,0.004
		c-0.242,0.021-0.486,0.044-0.722,0.069l-0.006,0.001c-1.513-0.058-2.812-0.292-3.975-0.715c-2.222-0.811-3.884-2.238-4.943-4.242
		c-1.607-3.04-1.737-6.171-0.386-9.308c1.094-2.542,2.992-4.267,5.639-5.126c1.344-0.437,2.703-0.657,4.048-0.657
		c1.532,0,3.054,0.286,4.518,0.853c3.228,1.248,5.099,3.691,5.565,7.264C164.727,99.438,164.512,101.294,163.834,103.003z"/>
	<g>
		<path fill="#003056" d="M244.628,72.884v0.005c-4.893-13.407-8.536-27.625-10.787-42.1c-0.291,4.681-0.438,9.613-0.438,14.364
			c0,25.568,4.306,50.127,12.227,72.998c1.27-8.836,3.06-17.507,5.339-25.98c0.203-0.779,1.121-3.998,1.329-4.726
			c6.809-23.54,17.379-45.384,31.031-65.038C268.057,37.192,255.189,54.267,244.628,72.884z"/>
		<path fill="#003056" d="M249.711,46.117c3.663,0,6.634-2.971,6.634-6.63c0-3.663-2.971-6.635-6.634-6.635
			c-3.664,0-6.63,2.972-6.63,6.635C243.081,43.146,246.047,46.117,249.711,46.117z"/>
	</g>
	<g>
		<path fill="#003056" d="M149.04,61.488l-0.007-9.275l9.713-0.013v-7.058l-9.721,0.004l0.005-7h10.881v-7.217
			c0,0-16.245-0.003-20.994,0l-0.033,37.57l21.027-0.008v-7L149.04,61.488z"/>
		<path fill="#003056" d="M143.433,14.233h-9.193c0,0-7.837,19.567-10.203,25.364c-1.612,3.949-3.232,7.898-4.852,11.845
			c-0.683-1.787-1.387-3.578-2.104-5.401c-1.787-4.543-3.635-9.241-5.146-13.965l-0.423-1.196H99.56l0.424,0.916
			c0.027,0.062,2.685,6.215,3.097,7.194c3.657,8.704,7.321,17.404,10.985,26.104c0.223,0.529,0.448,1.046,0.742,1.557
			c0.678,1.18,1.73,1.856,2.887,1.856c1.116,0,2.145-0.639,2.822-1.749c0.43-0.7,0.753-1.405,1.076-2.126l0.843-1.892
			c2.126-4.761,4.324-9.684,6.464-14.53c2.01-4.557,3.972-9.198,5.869-13.687C137.195,28.773,143.433,14.233,143.433,14.233z"/>
		<polygon fill="#003056" points="230.3,30.908 197.575,30.908 197.575,38.476 208.733,38.476 208.733,68.479 219.148,68.479 
			219.148,38.477 230.3,38.477 		"/>
		<path fill="#003056" d="M40.895,39.209c-0.45-3.05-2.147-5.413-4.906-6.833c-1.484-0.766-3.202-1.333-5.001-1.468
			c-0.169-0.013-0.388,0.016-0.566,0H17.378v37.586h8.896l0.005-15.126c0.257,0,0.47,0.004,0.654,0.017
			c0.356,0.023,0.714,0.034,1.064,0.034c1.232,0,2.426-0.142,3.55-0.421C38.756,51.202,41.707,44.702,40.895,39.209z M32.02,45.524
			c-0.154,0.36-0.371,0.823-0.807,1.209c-0.492,0.436-1.074,0.782-2.163,0.89h-0.079c-0.167-0.003-0.333-0.005-0.498-0.007
			l-0.246-0.002c-0.646-0.004-1.265-0.009-1.86-0.057V37.429c0.124-0.004,0.245-0.006,0.363-0.006c2.656,0,4.323,0.941,5.249,2.962
			C32.75,42.063,32.762,43.792,32.02,45.524z"/>
		<path fill="#003056" d="M86.176,61.466l-0.007-9.275l9.639-0.013V45.12l-9.647,0.004l0.005-6.999h10.847v-7.217
			c0,0-16.21-0.004-20.96,0v31.71c0,0-0.158,0.142-0.234,0.182c-0.079,0.041-0.261,0.11-0.354,0.12
			c-0.814,0.083-2.338-0.18-3.169-0.821c-0.812-0.626-1.742-1.383-2.477-2.253c-1.92-2.271-3.784-4.557-5.848-7.096l-0.106-0.132
			c-0.391-0.48-0.781-0.96-1.172-1.439c1.46-1.394,2.506-2.706,3.28-4.111c1.392-2.52,1.832-5.126,1.308-7.751
			c-0.793-3.973-3.371-6.654-7.455-7.75c-1.52-0.412-3.186-0.644-5.112-0.644l-0.516-0.006l-1.089-0.01h-9.154v37.576h8.939V55.089
			c0.363-0.001,0.82-0.011,1.095-0.03c0.016-0.001,0.031-0.002,0.046-0.003c0.021,0.023,0.054,0.062,0.1,0.128
			c1.437,2.064,3.139,4.486,4.874,6.797c0.856,1.139,1.84,2.292,3.099,3.631c1.329,1.409,2.859,2.299,4.548,2.643
			c0.933,0.189,2.879,0.24,2.879,0.24h27.478v-7.022L86.176,61.466z M58.581,45.507c-0.154,0.36-0.426,0.767-0.808,1.208
			c-0.534,0.617-1.201,0.891-2.162,0.891h-0.08c-0.163-0.004-0.325-0.006-0.486-0.007l-0.257-0.002
			c-0.647-0.005-1.3-0.009-1.895-0.058V37.412c2.883-0.092,4.68,0.844,5.646,2.956C59.309,42.045,59.323,43.774,58.581,45.507z"/>
		<path fill="#003056" d="M194.882,30.908h-7.315v0.682c0,3.042,0,16.183,0.006,20.628c-3.994-4.024-18.378-18.524-19.589-19.781
			c-0.411-0.431-1.076-1.086-1.895-1.361c-0.326-0.111-0.658-0.168-0.984-0.168c-1.446,0-2.496,1.229-2.496,2.806l-0.001,34.779
			l7.25,0.008l0.022-20.054c4.026,3.981,18.34,17.802,19.146,18.548c0.602,0.558,1.286,1.001,1.973,1.279
			c0.353,0.146,0.72,0.22,1.092,0.22c1.22,0,2.262-0.586,2.655-1.814c0.163-0.51,0.124-1.171,0.137-1.817V30.908z"/>
	</g>
	<path fill="#003056" d="M59.58,102.546c-0.556-1.611-1.934-2.995-3.393-4.461L55.6,97.493c-1.412-1.435-2.996-2.634-4.529-3.794
		l-0.259-0.194c-0.763-0.576-1.602-1.267-2.639-2.172c-0.517-0.45-0.887-0.914-1.133-1.419c-0.293-0.606-0.324-1.253-0.087-1.816
		c0.054-0.129,0.122-0.25,0.2-0.364l-0.008-0.005c0,0,1.535-2.926,6.453-0.259c0.362,0.169,0.75,0.454,1.35,0.865
		c0.097,0.064,0.189,0.144,0.294,0.201c0.044,0.025,0.188,0.08,0.188,0.08c0.425,0.146,0.833,0.221,1.209,0.221
		c0.918,0,1.896-0.346,2.051-1.17c0.105-0.558,0.063-3.729,0.063-3.729c0.001-1.303-0.594-2.236-1.89-2.655
		c-0.141-0.045-0.285-0.082-0.392-0.107l-0.071-0.02c-2.714-0.685-5.465-0.894-8.067-0.612c-1.921,0.206-3.684,0.777-5.241,1.698
		c-3.617,2.148-5.343,5.802-4.738,10.027c0.277,1.939,1.047,3.731,2.354,5.479c0.976,1.305,2.165,2.521,3.635,3.721
		c0.594,0.485,1.217,0.97,1.803,1.426l0.58,0.45c0.253,0.197,0.508,0.394,0.759,0.592c0.695,0.546,1.583,1.286,2.284,2.164
		c0.608,0.76,0.939,1.559,1.013,2.441c0.077,0.951-0.172,1.635-0.796,2.185l0.011,0.008c0,0-3.44,4.193-10.111-1.628
		c-0.183-0.161-0.417-0.16-0.718-0.16c-0.045,0-0.093,0.002-0.138,0.005c-0.615,0.041-1.034,0.415-1.161,0.543l-0.05,0.056
		c-0.264,0.316-0.476,0.682-0.485,1.08c-0.002,0.189,0,3.283,0,3.283c0.015,1.173,0.719,2.167,1.841,2.679
		c0.385,0.176,0.682,0.302,0.959,0.407c2.197,0.853,4.432,0.987,6.137,1.011l0.322,0.002c1.798,0,4.327-0.216,6.031-0.822
		c3.252-1.151,5.524-3.187,6.754-6.049C60.546,108.433,60.613,105.541,59.58,102.546z"/>
</g>
</svg>
